# xmcd
#
# Track frame offsets: 
#        150
#        16791
#        44530
#        66360
#        90652
#        113525
#        130589
#        158713
#        177652
#
# Disc length: 2797 seconds
#
# Revision: 1
# Processed by: cddbd v1.5.2PL0 Copyright (c) Steve Scherf et al.
# Submitted via: ExactAudioCopy v0.95a5
#
DISCID=6d0aeb09
DTITLE=Howling Wolf - Smokestack Lightning - Live in Germany 64
DYEAR=1964
DGENRE=Blues
TTITLE0=Shake It For Me
TTITLE1=Love Me
TTITLE2=Dust My Broom
TTITLE3=I Didn't Mean To Hurt Your Feelings
TTITLE4=Rockin' The Blues
TTITLE5=All My Life
TTITLE6=Going Down Slow
TTITLE7=Howlin' For My Darlin'
TTITLE8=Forty Four
EXTD=YEAR: 1964
EXTT0=
EXTT1=
EXTT2=
EXTT3=
EXTT4=
EXTT5=
EXTT6=
EXTT7=
EXTT8=
PLAYORDER=
